name ./resultDataOpenSim/trcMotMarkerGrf/sub09/grf-05-01.mot
datacolumns 19
datarows 22
range 1.04000000 1.12400000
endheader

                time	     ground_force_vx	     ground_force_vy	     ground_force_vz	     ground_force_px	     ground_force_py	     ground_force_pz	   l_ground_force_vx	   l_ground_force_vy	   l_ground_force_vz	   l_ground_force_px	   l_ground_force_py	   l_ground_force_pz	     ground_torque_x	     ground_torque_y	     ground_torque_z	   l_ground_torque_x	   l_ground_torque_y	   l_ground_torque_z	
          1.04000000	          0.00000000	          0.00000000	          0.00000000	          0.00000000	          0.00000000	          0.00000000	          2.76898084	        379.48838197	          1.81528524	          0.12657076	         -0.10000000	          0.05860879	          0.00000000	          0.00000000	          0.00000000	          0.00000000	         -2.18207284	          0.00000000	
          1.04400000	          0.00000000	          0.00000000	          0.00000000	          0.00000000	          0.00000000	          0.00000000	          5.31252486	        387.17070342	          1.31162914	          0.12685526	         -0.10000000	          0.05889931	          0.00000000	          0.00000000	          0.00000000	          0.00000000	         -2.42658477	          0.00000000	
          1.04800000	          0.00000000	          0.00000000	          0.00000000	          0.00000000	          0.00000000	          0.00000000	          8.12484386	        395.71110975	          0.84863914	          0.12710281	         -0.10000000	          0.05907948	          0.00000000	          0.00000000	          0.00000000	          0.00000000	         -2.68064003	          0.00000000	
          1.05200000	          0.00000000	          0.00000000	          0.00000000	          0.00000000	          0.00000000	          0.00000000	         11.20835751	        404.99134999	          0.45870557	          0.12731479	         -0.10000000	          0.05914882	          0.00000000	          0.00000000	          0.00000000	          0.00000000	         -2.93679838	          0.00000000	
          1.05600000	          0.00000000	          0.00000000	          0.00000000	          0.00000000	          0.00000000	          0.00000000	         14.58181360	        415.00097782	          0.19212763	          0.12747694	         -0.10000000	          0.05913259	          0.00000000	          0.00000000	          0.00000000	          0.00000000	         -3.18758853	          0.00000000	
          1.06000000	          0.00000000	          0.00000000	          0.00000000	          0.00000000	          0.00000000	          0.00000000	         18.26880288	        425.80005040	          0.09525510	          0.12755540	         -0.10000000	          0.05905413	          0.00000000	          0.00000000	          0.00000000	          0.00000000	         -3.42677505	          0.00000000	
          1.06400000	          0.00000000	          0.00000000	          0.00000000	          0.00000000	          0.00000000	          0.00000000	         22.29420495	        437.43938843	          0.18780729	          0.12752992	         -0.10000000	          0.05893300	          0.00000000	          0.00000000	          0.00000000	          0.00000000	         -3.64998214	          0.00000000	
          1.06800000	          0.00000000	          0.00000000	          0.00000000	          0.00000000	          0.00000000	          0.00000000	         26.68088149	        449.93612605	          0.46328941	          0.12743503	         -0.10000000	          0.05880744	          0.00000000	          0.00000000	          0.00000000	          0.00000000	         -3.85442985	          0.00000000	
          1.07200000	          0.00000000	          0.00000000	          0.00000000	          0.00000000	          0.00000000	          0.00000000	         31.44513560	        463.30450945	          0.91259763	          0.12734184	         -0.10000000	          0.05871244	          0.00000000	          0.00000000	          0.00000000	          0.00000000	         -4.03805386	          0.00000000	
          1.07600000	          0.00000000	          0.00000000	          0.00000000	          0.00000000	          0.00000000	          0.00000000	         36.58625787	        477.58373285	          1.54621355	          0.12728033	         -0.10000000	          0.05864643	          0.00000000	          0.00000000	          0.00000000	          0.00000000	         -4.19864113	          0.00000000	
          1.08000000	          0.00000000	          0.00000000	          0.00000000	          0.00000000	          0.00000000	          0.00000000	         42.07731355	        492.83934770	          2.38836202	          0.12725195	         -0.10000000	          0.05859611	          0.00000000	          0.00000000	          0.00000000	          0.00000000	         -4.33355586	          0.00000000	
          1.08400000	          0.00000000	          0.00000000	          0.00000000	          0.00000000	          0.00000000	          0.00000000	         47.86883592	        509.13335345	          3.44521680	          0.12727329	         -0.10000000	          0.05855689	          0.00000000	          0.00000000	          0.00000000	          0.00000000	         -4.44019764	          0.00000000	
          1.08800000	          0.00000000	          0.00000000	          0.00000000	          0.00000000	          0.00000000	          0.00000000	         53.88864244	        526.47075229	          4.68479475	          0.12732845	         -0.10000000	          0.05851902	          0.00000000	          0.00000000	          0.00000000	          0.00000000	         -4.51685805	          0.00000000	
          1.09200000	          0.00000000	          0.00000000	          0.00000000	          0.00000000	          0.00000000	          0.00000000	         60.03670456	        544.74551702	          6.04950824	          0.12739758	         -0.10000000	          0.05847211	          0.00000000	          0.00000000	          0.00000000	          0.00000000	         -4.56348541	          0.00000000	
          1.09600000	          0.00000000	          0.00000000	          0.00000000	          0.00000000	          0.00000000	          0.00000000	         66.20009951	        563.72451935	          7.47804089	          0.12746771	         -0.10000000	          0.05841734	          0.00000000	          0.00000000	          0.00000000	          0.00000000	         -4.58206146	          0.00000000	
          1.10000000	          0.00000000	          0.00000000	          0.00000000	          0.00000000	          0.00000000	          0.00000000	         72.27786992	        583.10464587	          8.91800202	          0.12748322	         -0.10000000	          0.05834304	          0.00000000	          0.00000000	          0.00000000	          0.00000000	         -4.57655591	          0.00000000	
          1.10400000	          0.00000000	          0.00000000	          0.00000000	          0.00000000	          0.00000000	          0.00000000	         78.20192687	        602.60651623	         10.32982662	          0.12737014	         -0.10000000	          0.05822335	          0.00000000	          0.00000000	          0.00000000	          0.00000000	         -4.55256125	          0.00000000	
          1.10800000	          0.00000000	          0.00000000	          0.00000000	          0.00000000	          0.00000000	          0.00000000	         83.95873922	        622.05146461	         11.67932026	          0.12714165	         -0.10000000	          0.05808089	          0.00000000	          0.00000000	          0.00000000	          0.00000000	         -4.51672605	          0.00000000	
          1.11200000	          0.00000000	          0.00000000	          0.00000000	          0.00000000	          0.00000000	          0.00000000	         89.58485934	        641.37252229	         12.92837175	          0.12685690	         -0.10000000	          0.05795285	          0.00000000	          0.00000000	          0.00000000	          0.00000000	         -4.47605770	          0.00000000	
          1.11600000	          0.00000000	          0.00000000	          0.00000000	          0.00000000	          0.00000000	          0.00000000	         95.12437248	        660.51260528	         14.03980380	          0.12658756	         -0.10000000	          0.05787512	          0.00000000	          0.00000000	          0.00000000	          0.00000000	         -4.43716719	          0.00000000	
          1.12000000	          0.00000000	          0.00000000	          0.00000000	          0.00000000	          0.00000000	          0.00000000	        100.59834166	        679.31904629	         14.98249897	          0.12640051	         -0.10000000	          0.05787085	          0.00000000	          0.00000000	          0.00000000	          0.00000000	         -4.40560493	          0.00000000	
          1.12400000	          0.00000000	          0.00000000	          0.00000000	          0.00000000	          0.00000000	          0.00000000	        106.01759559	        697.56645942	         15.71763077	          0.12633119	         -0.10000000	          0.05794200	          0.00000000	          0.00000000	          0.00000000	          0.00000000	         -4.38542485	          0.00000000	
